<?xml version="1.0" encoding="iso-8859-1"?>
<!-- Generator: Adobe Illustrator 19.0.0, SVG Export Plug-In . SVG Version: 6.00 Build 0)  -->
<svg version="1.1" id="Layer_1" xmlns="http://www.w3.org/2000/svg" xmlns:xlink="http://www.w3.org/1999/xlink" x="0px" y="0px"
	 viewBox="0 0 434 434" style="enable-background:new 0 0 434 434;" xml:space="preserve">
<g>
	<g>
		<g>
			<path d="M69,172.244v-47.799c-24.54-1.78-47.315-8.48-69-20.348v246.494c21.608,13.321,44.33,20.822,69,22.802v-114.16
				C58.791,243.701,50,226.655,50,214C50,197.364,57.368,182.425,69,172.244z"/>
			<path d="M327.5,240.5c-2.28,0-4.453-0.974-5.971-2.676C316.46,232.14,272,181.461,272,153c0-30.602,24.897-55.5,55.5-55.5
				c7.619,0,14.884,1.545,21.5,4.336V60.082c-40.892,0.585-83.046,15.24-124,30.033v247.99c40.572-14.582,82.284-28.48,124-29.023
				v-90.01c-7.531,9.688-13.806,16.821-15.529,18.753C331.953,239.527,329.78,240.5,327.5,240.5z M258.534,285.261
				c-2.381,0.722-4.763,1.462-7.143,2.218c-0.806,0.256-1.621,0.377-2.424,0.377c-3.393,0-6.541-2.175-7.623-5.58
				c-1.337-4.211,0.992-8.709,5.203-10.046c2.449-0.778,4.898-1.539,7.347-2.282c4.229-1.281,8.695,1.107,9.977,5.336
				C265.152,279.513,262.763,283.98,258.534,285.261z M298.425,275.372c-1.295,0.234-2.589,0.479-3.885,0.734
				c-0.52,0.102-1.038,0.151-1.549,0.151c-3.747,0-7.093-2.646-7.842-6.462c-0.851-4.336,1.975-8.54,6.31-9.391
				c1.372-0.27,2.744-0.529,4.115-0.777c4.358-0.784,8.511,2.101,9.297,6.447C305.659,270.423,302.772,274.585,298.425,275.372z
				 M339.872,258.075c0.787,4.348-2.1,8.51-6.447,9.297c-1.295,0.234-2.589,0.479-3.885,0.734c-0.52,0.102-1.038,0.151-1.549,0.151
				c-3.747,0-7.093-2.646-7.842-6.462c-0.851-4.336,1.975-8.54,6.31-9.391c1.372-0.27,2.744-0.529,4.115-0.777
				C334.931,250.843,339.086,253.729,339.872,258.075z"/>
			<path d="M105.5,223.5c5.238,0,9.5-4.262,9.5-9.5c0-5.238-4.262-9.5-9.5-9.5S96,208.762,96,214
				C96,219.238,100.262,223.5,105.5,223.5z"/>
			<path d="M318,153c0,5.238,4.262,9.5,9.5,9.5c5.238,0,9.5-4.262,9.5-9.5c0-5.238-4.262-9.5-9.5-9.5
				C322.262,143.5,318,147.762,318,153z"/>
			<path d="M365,60.608v51.52c11.056,10.152,18,24.715,18,40.872c0,12.239-8.224,28.587-18,43.699V309.5
				c0,0.018-0.003,0.036-0.003,0.055c24.541,1.779,47.317,8.48,69.003,20.348V83.408C412.395,70.09,389.675,62.59,365,60.608z"/>
			<path d="M85,162.441c6.347-2.533,13.26-3.941,20.5-3.941c30.602,0,55.5,24.898,55.5,55.5c0,28.461-44.46,79.14-49.529,84.824
				c-1.518,1.702-3.69,2.676-5.971,2.676c-2.28,0-4.453-0.974-5.971-2.676c-1.646-1.846-7.447-8.439-14.529-17.472v92.566
				c40.891-0.59,83.046-15.245,124-30.036V95.892c-40.573,14.583-82.284,28.483-124,29.027V162.441z M112.541,331.91
				c-1.372,0.269-2.744,0.528-4.117,0.776c-0.481,0.087-0.961,0.129-1.433,0.129c-3.796,0-7.164-2.711-7.863-6.577
				c-0.786-4.348,2.101-8.51,6.448-9.296c1.295-0.234,2.589-0.479,3.883-0.733c4.33-0.848,8.539,1.974,9.392,6.31
				C119.701,326.854,116.877,331.059,112.541,331.91z M150.934,322.115c-2.461,0.75-4.923,1.481-7.385,2.191
				c-0.74,0.213-1.486,0.315-2.22,0.315c-3.475,0-6.673-2.281-7.684-5.787c-1.224-4.246,1.227-8.679,5.472-9.902
				c2.384-0.687,4.768-1.395,7.15-2.122c4.227-1.287,8.696,1.094,9.985,5.32C157.541,316.356,155.159,320.827,150.934,322.115z
				 M174.763,297.406c2.37-0.829,4.74-1.666,7.109-2.508c4.164-1.481,8.738,0.693,10.219,4.856
				c1.481,4.163-0.693,8.738-4.855,10.218c-2.396,0.853-4.794,1.699-7.191,2.538c-0.874,0.305-1.765,0.45-2.641,0.45
				c-3.306,0-6.398-2.064-7.552-5.361C168.394,303.427,170.592,298.864,174.763,297.406z"/>
			<path d="M105.498,281.255C122.774,260.621,145,229.058,145,214c0-21.78-17.72-39.5-39.5-39.5C83.72,174.5,66,192.22,66,214
				C66,229.077,88.223,260.631,105.498,281.255z M105.5,188.5c14.06,0,25.5,11.44,25.5,25.5c0,14.061-11.44,25.5-25.5,25.5
				C91.439,239.5,80,228.061,80,214C80,199.94,91.439,188.5,105.5,188.5z"/>
			<path d="M288,153c0,15.077,22.223,46.631,39.498,67.255C344.774,199.621,367,168.058,367,153c0-21.78-17.72-39.5-39.5-39.5
				C305.72,113.5,288,131.22,288,153z M353,153c0,14.061-11.44,25.5-25.5,25.5c-14.061,0-25.5-11.439-25.5-25.5
				c0-14.06,11.439-25.5,25.5-25.5C341.56,127.5,353,138.94,353,153z"/>
		</g>
	</g>
</g>
<g>
</g>
<g>
</g>
<g>
</g>
<g>
</g>
<g>
</g>
<g>
</g>
<g>
</g>
<g>
</g>
<g>
</g>
<g>
</g>
<g>
</g>
<g>
</g>
<g>
</g>
<g>
</g>
<g>
</g>
</svg>
