<svg version="1.2" xmlns="http://www.w3.org/2000/svg" viewBox="0 0 624 715" width="624" height="715">
	<title>need-for-route-opt-svg</title>
	<defs>
		<clipPath clipPathUnits="userSpaceOnUse" id="cp1">
			<path d="m0 0h624v715h-624z"/>
		</clipPath>
		<clipPath clipPathUnits="userSpaceOnUse" id="cp2">
			<path d="m593.39 868h-594v-868h594z"/>
		</clipPath>
	</defs>
	<style>
		.s0 { fill: #dbecfe } 
		.s1 { fill: #bcdeff } 
		.s2 { fill: #d2e9ff } 
		.s3 { fill: none;stroke: #0067e8;stroke-width: .5;stroke-dasharray: 8 } 
		.s4 { opacity: .6;fill: #abd0ef } 
		.s5 { fill: #34233c } 
		.s6 { fill: #ffffff } 
		.s7 { fill: #b03c3c } 
		.s8 { fill: #dd3e3e } 
		.s9 { fill: #ff5753 } 
		.s10 { fill: #f7f9fb } 
		.s11 { fill: #0055bf } 
		.s12 { fill: #0067e8 } 
		.s13 { fill: #ffc347 } 
		.s14 { fill: #f39719 } 
		.s15 { fill: #af675b } 
		.s16 { fill: #a0544a } 
		.s17 { fill: #5ebae7 } 
		.s18 { fill: #ca9e67 } 
		.s19 { fill: #ed6624 } 
		.s20 { fill: #ff8e57 } 
		.s21 { fill: #336680 } 
		.s22 { fill: #9d9d9c } 
		.s23 { fill: #ffc0b2 } 
		.s24 { fill: #3c3c3b } 
		.s25 { fill: #f7c443 } 
		.s26 { fill: #b17f4a } 
		.s27 { fill: #e2a091 } 
		.s28 { fill: #d3897d } 
	</style>
	<g id="Clip-Path" clip-path="url(#cp1)">
		<g id="Layer">
			<path id="Layer" class="s0" d="m-206.7 940.3c-113.9 77.3-268.9 47.6-346.2-66.3-77.3-114-47.6-269 66.3-346.3l692.3-469.7c114-77.3 269-47.6 346.3 66.3 77.3 114 47.6 269-66.3 346.3z"/>
			<g id="Clip-Path" clip-path="url(#cp2)">
				<g id="Layer">
					<path id="Layer" class="s1" d="m441.5 217.6l-51.8-98.1c-5.1-9.7-15.2-15.8-26.2-15.8-16.3 0-29.6-13.2-29.6-29.6v-56.9c55.2-7 176 14.8 239.5 146l-65.2 64.7c-20.1 19.8-53.6 14.6-66.7-10.3z"/>
					<path id="Layer" class="s1" d="m-33.7 240.9h106.1l-0.4 126.2c-0.3 18.7 8.4 35.3 21.6 40.8l96.1 39.9c5 2.2 9.6 6.1 13.2 11.2 12.1 17.5 10.9 45.3-2.6 60.6l-45.1 51c-6.2 7-10.1 17.2-10.9 28.1v109.2l-178 120z"/>
					<path id="Layer" class="s2" d="m347.4 131.5l0.2 326.6h-54.2l-0.3-326.6z"/>
					<path id="Layer" class="s1" d="m482 164.5l-95.8 296.3-51.6-16.6 95.8-296.4z"/>
					<path id="Layer" class="s3" d="m321.8 402.3v-249.1"/>
					<path id="Layer" class="s4" d="m291 64.9l7.2-8.3 0.8 0.3 0.5-23.8-1.6-1.3c0 0 0 0-0.1-0.1l-6.2 2.6c-0.1-0.1-0.3-0.2-0.3-0.3l-0.1-0.1-0.2-0.5c-0.3-0.7 0-1.5 0.8-1.8l5.1-2.2c0.5-0.2 0.9-0.1 1.2 0l1.4-1.1 0.1-4.7c0-4 3.4-7.3 8-8.3 3.2-1.1 7.9-1.9 13.1-1.9 5.3 0 10.1 0.8 13.3 2 4.8 0.9 8.5 4.4 8.4 8.5l-0.1 4.8 0.9 0.6c0.3-0.2 0.7-0.2 1.2 0l5.1 2.1c0.8 0.4 1.1 1.3 0.8 1.9l-0.2 0.5-0.2 0.1c-0.1 0.1-0.1 0.2-0.2 0.3l-6.2-2.6c0 0 0 0-0.1 0.1l-1.4 1.1-0.4 24.4c0 2.2-1.1 3.1-2.8 3.5v1.9c0 0.4-0.3 0.7-0.8 0.7h-20.1l21.8 7.4h0.1l13.6 78.1-7.8 8.3-0.1-0.2v0.1l0.1 0.1h-0.1-54.5-0.5v-92.2z"/>
					<path id="Layer" class="s5" d="m307.6 51.9c0 0.5 1.5-1 1-1h34.3c-0.5 0 1 1.5 1 1v5.1c0-0.6-1.5 1-1 1h-34.3c0.5 0-1-1.6-1-1z"/>
					<path id="Layer" class="s5" d="m325.8 8.2c9.6 0 17.4 2.5 17.4 5.5 0 3-7.8 5.4-17.4 5.4-9.6 0-17.3-2.4-17.3-5.4 0-3 7.7-5.5 17.3-5.5z"/>
					<path id="Layer" class="s5" d="m314.7 55.2c-5.9-0.1-10.7 1.2-10.6-3.5l0.7-33.5c0-4.6 4.9-8.4 10.8-8.4l21.3 0.1c5.9 0 10.7 3.9 10.6 8.7l-0.7 33.4c0 4.8-4.9 3.3-10.8 3.3z"/>
					<path id="Layer" class="s6" d="m341.4 16.2c-2.1-1.9-3.2-4.2-2.5-5 0.8-0.8 3.1 0.2 5.2 2.1 2.1 2 3.2 4.2 2.5 5-0.8 0.9-3.1-0.1-5.2-2.1z"/>
					<path id="Layer" class="s6" d="m305.4 18.9c-0.8-0.8 0.2-3.1 2.1-5.2 2-2.1 4.3-3.2 5.1-2.5 0.8 0.8-0.2 3.1-2.1 5.2-2 2.1-4.3 3.2-5.1 2.5z"/>
					<path id="Layer" class="s7" d="m342.2 66c0 0-5.8 3.6-6.7 2.3-0.8-1 6.7-2.3 6.7-2.3z"/>
					<path id="Layer" class="s7" d="m309.2 65.8c0 0 5.7 3.6 6.7 2.3 0.8-1-6.7-2.3-6.7-2.3z"/>
					<path id="Layer" class="s5" d="m317.6 12c0 0.6 1.5-1 1-1h14.3c-0.5 0 1 1.6 1 1v1.8c0-0.6-1.5 1-1 1h-14.3c0.5 0-1-1.6-1-1z"/>
					<path id="Layer" class="s8" d="m316.1 53.6c-5.2-0.2-9.3-2.5-9.3-5.4l0.3-31.1c0-2.9 4.3-5.1 9.5-5.1l18.8 0.1c5.2 0 9.3 2.5 9.3 5.3v31.2c0 2.8-4.2 5.2-9.4 5.2z"/>
					<path id="Layer" class="s9" d="m317.9 52.3c-4.1 0-7.3-2.1-7.3-4.7l0.3-8.3c0.1-2.5 3.5-4.6 7.6-4.6l14.9 0.1c4.2 0 7.4 2.1 7.4 4.8v8.1c-0.1 2.5-3.4 4.6-7.5 4.6z"/>
					<path id="Layer" class="s9" d="m319.3 27.4c-3.6 0-6.4-1.6-6.4-3.7l0.2-6.5c0.2-2 2.9-3.6 6.5-3.6l12.7 0.1c3.5 0 6.3 1.6 6.3 3.7v6.5c0 2.1-2.9 3.8-6.4 3.8z"/>
					<path id="Layer" class="s9" d="m298.4 56.7h54.7v90.7h-54.7z"/>
					<path id="Layer" class="s8" d="m350.1 61.8l3.1-5.1v90.7l-3.1-5.1z"/>
					<path id="Layer" class="s5" d="m348.5 143.9l4.7 3.5h-54.3l4.6-3.5z"/>
					<path id="Layer" class="s8" d="m303.5 60.2l-4.6-3.5h54.3l-4.7 3.5z"/>
					<path id="Layer" class="s6" d="m328.3 19.7c11.5 0.4 16.2 6.4 16.2 6.4l-3.5 10.3c0 0-2.5-3.3-15.1-3.5-10 0-15.1 3.2-15.1 3.2l-3.2-10.4c-0.1 0.1 2-6.7 20.7-6z"/>
					<path id="Layer" class="s5" d="m355.2 28.4c0 0.2-0.1 0.3-0.3 0.4l-7.8-3c0-0.1 0-0.4 0.1-0.5v-0.1l8 3z"/>
					<path id="Layer" class="s9" d="m349.3 24.1l5.2 2c0.8 0.3 1.2 1.1 0.9 1.9l-0.1 0.4-8-3 0.1-0.4c0.3-0.9 1.1-1.2 1.9-0.9z"/>
					<path id="Layer" class="s5" d="m297 30.1l7.8-3.7 0.1 0.2c0 0.1 0.1 0.3 0.1 0.4l-7.6 3.6c-0.2-0.2-0.2-0.3-0.3-0.4z"/>
					<path id="Layer" class="s9" d="m304.7 26.1l0.2 0.5-7.8 3.6-0.2-0.4c-0.3-0.8 0-1.7 0.8-2l5-2.4c0.8-0.4 1.7-0.1 2 0.7z"/>
					<path id="Layer" class="s6" d="m307 28.9l2.5 8.1c0.1 0.2 0.1 0.4 0.1 0.7l-0.1 7.9c0 0.6-0.4 1.2-0.8 1.6l-1.9 1.7z"/>
					<path id="Layer" class="s6" d="m344.6 48.9l-1.8-1.7c-0.4-0.4-0.8-1-0.8-1.6v-7.9c0-0.3 0-0.5 0.2-0.7l2.5-8.1z"/>
					<path id="Layer" class="s10" d="m664.4 331h-123.3c-18.6 0-35.7 9.9-44.9 25.9l-36.6 63.2h-60.7l53.1-88.4c18-30.2 50.5-48.5 85.5-48.5h126.9z"/>
					<path id="Layer" class="s6" d="m225.1 427.9v-126.2c0-18.7-15.4-33.8-34.2-33.6l-224.6 2.1v-55h241.7c39.1 0 70.8 31.7 70.8 70.8v150.3z"/>
					<path id="Layer" class="s4" d="m431.9 119.3l5.9-0.3c0.4 0 0.9 0.1 1.2 0.4l1.8-0.6 1.7-4.7c1.4-3.9 6-6 10.9-5.4 3.5 0 8.5 0.9 13.7 2.7 5.4 1.9 9.9 4.4 12.7 6.7 4.6 2.6 6.9 7.3 5.4 11.5l-1.8 4.8 0.5 0.9c0.5 0 0.9 0.1 1.3 0.5l4.3 4c0.7 0.5 0.7 1.5 0.1 2.2l-0.3 0.3-0.1 0.1q-0.2 0.2-0.4 0.4l-5.3-4.9h-0.1l-1.6 0.5-30.2 83.4c-0.9 2.5-2.7 2.9-5 2.2l-5.3 14.9-0.8-0.4-0.9-0.3 5.2-14.9-5.2 14.9-0.9-0.3 5.2-14.9c-1.3-0.6-2.8-1.2-4.3-1.8l-21.3-7.8c-1.6-0.6-3.3-1.1-4.8-1.5l-5.3 15.1-0.9-0.3-0.9-0.4-0.9-0.3 5.5-15.2c-1.9-1-2.8-2.3-1.9-4.7l29.9-82.5-1.2-2v-0.2l-7.2 0.5c0-0.1-0.2-0.3-0.2-0.5v-0.1-0.4c-0.1-0.8 0.6-1.6 1.5-1.6z"/>
					<path id="Layer" class="s5" d="m413.2 218.8l6.7-18.9 1.3 0.4-6.7 19z"/>
					<path id="Layer" class="s11" d="m414.1 219.2l6.7-19 1.3 0.5-6.7 18.9z"/>
					<path id="Layer" class="s12" d="m415.5 219.7l6.8-19 1.2 0.5-6.7 18.9z"/>
					<path id="Layer" class="s5" d="m455.5 212.5l-6.8 18.9-1.2-0.4 6.7-19z"/>
					<path id="Layer" class="s11" d="m454.6 212.1l-6.7 18.9-1.3-0.4 6.7-19z"/>
					<path id="Layer" class="s12" d="m453.3 211.6l-6.7 19-1.3-0.5 6.8-18.9z"/>
					<path id="Layer" class="s5" d="m474.5 102.4c9.5 3.5 16.5 8.7 15.4 11.7 0.8-2.3-12.2 9.7-21.8 6.2-9.5-3.4-12-20.4-13.1-18.2 1.7-3.4 9.8-3.1 19.5 0.3z"/>
					<path id="Layer" class="s5" d="m425.6 205.1c-5.1-1.8-8.2-4.2-8.4-8.2-0.1-1.2 0.1-2.4 0.6-3.5l29.5-81.5c3.7-10.1 10.3-13.7 16.3-11.6l21.3 7.7c5.8 2.1 8.9 9.2 5.1 19.3l-29.6 82c-1.9 5.4-6.5 6-13.5 3.6z"/>
					<path id="Layer" class="s6" d="m485.3 115.3c-1.6-2.6-2-5.2-1.1-5.8 1-0.6 3.1 1 4.7 3.5 1.6 2.6 2.1 5.2 1.1 5.8-1 0.6-3.1-1-4.7-3.5z"/>
					<path id="Layer" class="s6" d="m452.8 105.5c-0.4-1.1 1.6-2.8 4.5-3.8 2.8-1 5.4-0.9 5.8 0.2 0.4 1.1-1.6 2.8-4.4 3.8-2.9 1-5.5 0.9-5.9-0.2z"/>
					<path id="Layer" class="s5" d="m464.9 103.2c0.2-0.4 0.7-0.6 1.1-0.5l14.8 5.2c0.5 0.2 0.7 0.7 0.6 1.1l-0.8 2.2c-0.2 0.5-0.7 0.7-1.1 0.6l-14.8-5.2c-0.5-0.3-0.7-0.7-0.6-1.2z"/>
					<path id="Layer" class="s11" d="m427.6 204c-5.2-1.9-8.6-5.3-6.3-12.1l28.8-80.2c3.1-8.3 8.5-10.6 13.8-8.7l18.8 6.8c5.1 1.9 8 7.2 5 15.5l-28.6 80.8c-2.2 6.6-7.1 6.8-12.3 4.9z"/>
					<path id="Layer" class="s12" d="m430 203.4c-5.3-1.9-5.8-7.3-4.8-10l20.9-58.2c1-2.5 5.1-3.4 9.3-2l14.9 5.4c4.1 1.4 6.6 4.7 5.6 7.4l-20.5 58.1c-0.9 2.7-4.3 6.9-10.2 4.8z"/>
					<path id="Layer" class="s12" d="m458.6 126.7c-3.6-1.4-5.8-4-5-6.1l2.5-6.5c2.8-7.4 6.7-9.7 10.3-8.3l12.6 4.5c3.5 1.4 5.4 5.6 2.6 13l-2.3 6.5c-0.8 2.1-4.3 2.6-7.8 1.4z"/>
					<path id="Layer" class="s6" d="m470.3 121.3c11.4 4.4 14.1 12.1 14.1 12.1l-7.1 9.3c0 0-1.5-4.3-14.1-8.8-10.1-3.6-16.3-1.9-16.3-1.9l0.3-11.7c0 0 4.5-6.1 23.1 1z"/>
					<path id="Layer" class="s11" d="m494.2 140.2q-0.2 0.2-0.4 0.4l-6.6-6c0.1-0.2 0.1-0.3 0.2-0.4l0.1-0.1z"/>
					<path id="Layer" class="s12" d="m490 133.6l4.4 4c0.6 0.5 0.6 1.5 0.1 2.2l-0.3 0.3-6.7-6.1 0.3-0.3c0.6-0.7 1.6-0.7 2.2-0.1z"/>
					<path id="Layer" class="s11" d="m436 119.3l9.1-0.5v0.1c0 0.1 0 0.3 0 0.4l-8.9 0.6c-0.1-0.1-0.1-0.3-0.1-0.5z"/>
					<path id="Layer" class="s12" d="m445.1 118.2v0.5l-9.1 0.5v-0.4c0-0.9 0.7-1.7 1.6-1.7l5.9-0.3c0.8 0 1.6 0.5 1.6 1.4z"/>
					<path id="Layer" class="s6" d="m445.5 124.8l-0.4 9c0 0.2 0 0.4-0.1 0.6l-2.8 7.9c-0.2 0.7-0.7 1.1-1.4 1.4l-2.5 1z"/>
					<path id="Layer" class="s6" d="m476.1 158.1l-1.2-2.3c-0.3-0.7-0.4-1.4-0.2-2l2.8-7.9c0.1-0.2 0.2-0.3 0.3-0.6l5.5-7.2z"/>
					<path id="Layer" class="s12" d="m209.5 425.1c0 4.4 12.4-8 8-8h234.1c-4.4 0 8 12.4 8 8v143.8c0-4.4-12.4 8-8 8h-234.1c4.4 0-8-12.4-8-8z"/>
					<path id="Layer" class="s6" d="m222.1 558.4v-101-23.1c0-3.2 3.1-5.9 7-5.9h211.4c3.8 0 7 2.6 7 5.9v124.2c0 3.3-3.2 5.8-6.9 5.8h-211.7c-3.8 0-6.9-2.7-6.8-5.9z"/>
					<path id="Layer" class="s3" d="m438.8 208.8l-69.7 209.7"/>
					<path id="Layer" class="s3" d="m419.1 430.3l54.6-84.3c8.7-13.5 22.9-22.3 38.8-24.2l23.1-22.4"/>
					<path id="Layer" class="s3" d="m109.1 241.9h97c26.4 0 47.8 21.4 47.6 47.9-0.4 53.2-0.8 132.2 0.4 134.6"/>
					<path id="Layer" class="s13" d="m277.6 377.1h83.4v102.2h-83.4z"/>
					<path id="Layer" class="s14" d="m328.4 377.1h63v102.2h-63z"/>
					<path id="Layer" class="s5" d="m329 376.8h15.2v102.9h-15.2z"/>
					<g id="Layer">
						<path id="Layer" class="s15" d="m340.3 494.9l2.3-57c0.2-4.4 3.9-7.8 8.2-7.6 4.4 0.2 7.8 3.9 7.6 8.2l-2.3 57c-0.2 3.6-3.3 6.4-6.8 6.3l-2.7-0.1c-3.7-0.2-6.4-3.3-6.3-6.8z"/>
						<path id="Layer" class="s15" d="m323.5 521.5l2.3-57c0.2-4.3 3.9-7.7 8.2-7.5 4.4 0.2 7.8 3.9 7.6 8.2l-2.3 57c-0.1 3.6-3.3 6.3-6.8 6.2l-2.7-0.1c-3.7-0.1-6.4-3.1-6.3-6.8z"/>
						<path id="Layer" class="s15" d="m307.5 529l2.3-57.5c0.2-4.3 3.9-7.7 8.2-7.5 4.4 0.2 7.8 3.9 7.6 8.2l-2.3 57.4c-0.3 3.4-3 6-6.5 5.9l-3.4-0.1c-3.4-0.1-6-3-5.9-6.4z"/>
						<path id="Layer" class="s15" d="m292.2 513.5l1.3-30.5c0.2-4.3 3.9-7.8 8.2-7.6 4.3 0.3 7.8 3.9 7.5 8.3l-1.2 30.5c-0.1 3.6-3.2 6.3-6.8 6.2l-2.6-0.1c-3.6-0.1-6.4-3.1-6.4-6.8z"/>
						<path id="Layer" class="s15" d="m331.7 530.1l36.1-50.9c2.8-4 8.4-4.9 12.3-2.1 4.1 2.9 4.9 8.6 1.9 12.4l-37.8 49.4z"/>
						<path id="Layer" class="s15" d="m372.9 501.4l-37.7 48.8 4.5 112.8h-53.6l6.2-107v-43.8l57.1-34 7.4 18z"/>
					</g>
					<path id="Layer" class="s9" d="m341.3 714.9h-62l4.5-151h55.3z"/>
					<path id="Layer" class="s5" d="m306.3 714.9l32.8-151 2.2 151z"/>
					<path id="Layer" class="s16" d="m346.9 431.2l-6 66.8 1.7-60c0-0.1 0.1-4.3 4.3-6.8z"/>
					<path id="Layer" class="s16" d="m375.5 475.5l-28.6 32.4 21.1-28.7c0 0 2.1-3.5 7.5-3.7z"/>
					<path id="Layer" class="s16" d="m329.5 458.2l-4.1 39.7 0.4-33.4c0 0 0.5-4.4 3.7-6.3z"/>
					<path id="Layer" class="s16" d="m313.5 465.3l-4.8 34.6 1.3-29.6c-0.1 0 0.8-3.2 3.5-5z"/>
					<path id="Layer" class="s4" d="m505.6 281.1l4.8 2.4c0.3 0.3 0.7 0.6 0.8 0.9l1.6 0.4 3.5-2.9c4.2-3.5 8.1-4.9 11.4-4.9 2.7-0.8 8.7 3.3 14.3 9.8 3.6 4.3 6.2 8.6 7.1 11.9 1.5 4.2-0.2 9.7-6.4 14.8l-3.5 3v1c0.3 0.3 0.7 0.5 0.8 0.9l1.5 5.1c0.2 0.8-0.2 1.6-0.9 1.8l-0.4 0.1h-0.1c-0.1 0-0.4 0.1-0.5 0.1l-2-6.2h-0.1l-1.4-0.2-47.7 39.7c-3.6 2.9-5.6-1.5-9.3-5.9l-13.2-15.8c-3.7-4.3-7.5-7.1-4-10l47.2-39.2v-2.1-0.1l-5.9-3c0-0.2 0.1-0.3 0.1-0.5l0.1-0.1 0.2-0.3c0.5-0.8 1.2-1.1 2-0.7z"/>
					<path id="Layer" class="s5" d="m547.5 286.5c5.9 7.2 9 14.4 6.8 16.3 1.8-1.6-13.9 2-19.9-5.1-6-7.2-0.1-21.6-2-20.4 2.9-1.9 9.1 2.1 15.1 9.2z"/>
					<path id="Layer" class="s5" d="m471.5 337c-3-3.8-4.5-7.1-2.8-10.3 0.4-1 1.2-1.8 2-2.5l51-42.5c7.6-6.3 14.5-6.2 18.2-1.7l13.2 15.8c3.7 4.2 2.8 11.2-4.8 17.4l-51.4 42.8c-3.9 3.3-7.7 1.8-12.1-3.3z"/>
					<path id="Layer" class="s6" d="m552.2 296.6c1.1 0 2 2.2 2 4.9 0 2.7-0.9 4.9-2 4.9-1.1 0-2-2.2-2-4.9 0-2.7 0.9-4.9 2-4.9z"/>
					<path id="Layer" class="s6" d="m533.5 281.9c-2.6-0.5-4.6-1.8-4.4-2.9 0.2-1 2.6-1.5 5.2-1 2.7 0.5 4.6 1.8 4.4 2.9-0.2 1.1-2.5 1.6-5.2 1.1z"/>
					<path id="Layer" class="s5" d="m539.7 282.9c0.4-0.2 0.9-0.2 1.2 0.1l9.2 10.9c0.2 0.3 0.2 0.9-0.1 1.1l-1.7 1.3c-0.3 0.2-0.9 0.2-1.1-0.1l-9.2-10.9c-0.3-0.3-0.3-0.9 0.1-1.1z"/>
					<path id="Layer" class="s14" d="m473.7 337c-3.1-3.9-4.3-8.1 0.7-12.3l49.8-41.8c6.2-5.1 11.5-4.5 14.8-0.6l11.6 13.9c3.3 3.8 3.2 9.3-3.1 14.5l-49.9 42.3c-4.9 4.1-8.8 2-12-1.9z"/>
					<path id="Layer" class="s13" d="m475.9 337.5c-3.3-3.8-1.2-8.3 0.8-10l33.6-28c1.9-1.6 5.5-0.5 8.1 2.6l9.2 11c2.6 3 3.1 6.8 1.1 8.4l-33.2 28.2c-1.9 1.6-6.5 3.4-10.1-0.9z"/>
					<path id="Layer" class="s13" d="m524 298.2c-2.2-2.5-2.7-5.7-1.2-7l5-3.9c5.6-4.5 9.6-4.5 11.8-1.9l7.9 9.5c2.3 2.5 1.7 6.6-3.9 11.3l-4.7 4c-1.6 1.2-4.6 0.1-6.8-2.4z"/>
					<path id="Layer" class="s6" d="m535.6 299.4c7 8.7 5.6 15.9 5.6 15.9l-9.8 4c0 0 0.9-4-7-13.3-6.3-7.3-11.9-9-11.9-9l5.6-9c0 0.1 6.2-2.6 17.5 11.4z"/>
					<path id="Layer" class="s14" d="m545.6 325.2c-0.1 0-0.3 0.1-0.4 0.1l-2.5-7.8c0.2-0.1 0.3-0.1 0.4-0.2h0.1z"/>
					<path id="Layer" class="s13" d="m545.5 318.1l1.6 5.1c0.2 0.8-0.2 1.6-0.9 1.8l-0.4 0.1-2.5-7.9 0.4-0.1c0.8-0.1 1.6 0.3 1.8 1z"/>
					<path id="Layer" class="s14" d="m509.7 282.2l7.4 3.8-0.1 0.1c0 0.1-0.2 0.2-0.3 0.3l-7.2-3.6c0-0.3 0-0.4 0.1-0.5z"/>
					<path id="Layer" class="s13" d="m517.3 285.5l-0.2 0.4-7.4-3.8 0.2-0.3c0.4-0.7 1.3-0.9 1.9-0.6l4.8 2.5c0.8 0.3 1 1.2 0.7 1.8z"/>
					<path id="Layer" class="s6" d="m514.5 290.8l-4.3 6.9c-0.1 0.2-0.3 0.3-0.5 0.4l-5.9 5c-0.4 0.4-1.1 0.6-1.7 0.4l-2.4-0.3z"/>
					<path id="Layer" class="s6" d="m523.2 331.2l0.1-2.3c0-0.7 0.3-1.2 0.8-1.7l5.9-5c0.2-0.1 0.3-0.2 0.5-0.3l7.6-3.2z"/>
					<path id="Layer" fill-rule="evenodd" class="s4" d="m92.2 264.3l-0.6-1.1h-0.4c-0.3-0.1-1-1-1.6-1.9l1.3 2.5v0.2c0 0.1-0.1 0.1-0.3 0.2-0.2 0.1-0.3 0-0.4-0.1l-2.4-4.8c-0.2-0.4-0.3-1.4 0.6-1.9 0.1-0.1 0.2-0.1 0.4-0.2 0-0.2 0.1-0.3 0.2-0.5-0.1-0.3-0.1-0.5-0.2-0.7-0.2-0.7 0.1-4.9 0.2-7.6h-5.5c-0.2 0-0.4-0.2-0.4-0.4 0-0.2 0.2-0.5 0.4-0.5h5.5q0-0.1 0-0.3h-8c-0.5 0-0.8-0.1-1.1-0.4h-10.6c-0.8 0-1.3-0.6-1.3-1.4 0-0.7 0.5-1.3 1.3-1.3h10.6c0.3-0.2 0.6-0.4 1.1-0.4h8q0-0.2 0-0.4h-5.5c-0.2 0-0.4-0.2-0.4-0.4 0-0.2 0.2-0.5 0.4-0.5h5.5c-0.2-2.6-0.5-6.9-0.2-7.5 0-0.2 0.1-0.6 0.2-0.7-0.1-0.1-0.2-0.3-0.2-0.5-0.2-0.2-0.3-0.2-0.4-0.3-0.8-0.4-0.8-1.4-0.6-1.9l2.4-4.7c0.1-0.1 0.3-0.3 0.4-0.1 0.2 0 0.2 0.1 0.3 0.2v0.2l-1.3 2.4c0.6-0.8 1.3-1.7 1.6-1.8 0.1-0.2 0.3-0.2 0.4 0l0.6-1.2c0.2-0.5 0.9-0.6 1.4-0.4 0.6 0.2 0.7 0.9 0.5 1.4l-0.6 1c0.1 0 0.1 0 0.3 0.2 0.6 0.3 1.5 0.4 2.1 0.4 0.6 0 1.2 0.1 1.6 0.2 2.6-0.2 5.6-0.3 8.2-0.3 2 0 4.4 0.3 5.6 1 0.5 0 0.8 0.1 1.3 0.1 1.5 0.2 3 0.8 3.8 1.6 0.7 0 1.5 0.1 2.3 0.3 0.5 0.2 1.1 0.4 1.5 0.8 1.7-0.6 3.8-0.7 6.1-0.3 0.4 0 0.9 0.2 1.8 0.3 2.6 0.4 7.2 1.5 10.1 5h2v-6.7c0-0.7 0.6-1.1 1.1-1.1h26.2c0.6 0 1.1 0.5 1.1 1.1v29.2c0 0.7-0.5 1.1-1.1 1.1h-26.2c-0.6 0-1.1-0.4-1.1-1.1v-6.6h-1.9c-3 3.5-7.7 4.4-10.2 4.7-0.6 0.1-1.2 0.1-1.3 0.3-2.8 0.6-5.4 0.6-7.2 0-0.4 0.1-0.6 0.2-0.9 0.3-0.8 0.2-1.6 0.3-2.3 0.3-0.8 0.7-2.3 1.2-3.8 1.6-0.5 0.1-0.8 0.1-1.3 0.1-1.2 0.7-3.6 1-5.6 1-2.6 0-5.6-0.1-8.2-0.3-0.4 0.1-1.1 0.2-1.6 0.2-0.6 0-1.5 0.2-2.1 0.4-0.2 0-0.2 0.1-0.3 0.1l0.6 1c0.2 0.6 0.1 1.1-0.5 1.5-0.5 0.3-1.2 0-1.4-0.6zm-3.8-5.3l0.6 1.1c-0.4-0.7-0.5-1.3-0.2-1.7q0.1-0.1 0.3-0.3l-0.1-0.3c0 0-0.1 0-0.1 0.1-0.7 0.3-0.5 1.1-0.5 1.1zm4-2.6c1.1 0.6 0.9 0.7 1.4 1 0.6 0.6 1.7 0.7 2.5 0.8 0.5 0.1 0.9 0.2 1.2 0.2 1.8-0.2 4-0.5 5.9-1.2 1.1-0.4 2.5-0.4 3.7-0.1 0.9-0.9 2.6-1.7 4.5-2 0.5-0.1 1.1-0.1 1.6-0.1 0.5-0.8 1.2-1.5 2.2-2-0.2-0.1-0.5-0.2-0.7-0.5-2 0.6-3.8 0.9-5.1 0.9-3.7 0-6.7-2.7-7.5-6.3h-8.1c-0.5 0.6-1 0.8-1.7 0.9 0 0.2-0.2 0.3-0.4 0.3h-1.8c-0.2 3.1-0.3 6.9-0.3 7.4 0 0.2 0.1 0.3 0.2 0.5 0.3 0 0.5 0.2 0.6 0.5v-0.2c0.7 0 1-0.4 1.8-0.1zm0-22.1c-0.8 0.4-1.1-0.1-1.8-0.2v-0.1c-0.2 0.2-0.4 0.4-0.6 0.4-0.1 0.1-0.1 0.4-0.2 0.6-0.2 0.5 0.1 4.2 0.3 7.4h1.7c0.2 0 0.4 0.1 0.4 0.4 0.7 0 1.2 0.3 1.7 0.9h8.1c0.8-3.7 3.9-6.5 7.7-6.5 1.2 0 3.1 0.3 5 0.9 0.2-0.1 0.4-0.2 0.5-0.3v-0.1c-0.9-0.6-1.6-1.3-2.1-1.9-0.5 0-1.1 0-1.7-0.1-2-0.4-3.5-1.2-4.4-2-1.2 0.2-2.6 0.2-3.7-0.2-1.9-0.6-4.1-1-5.9-1.2-0.3 0.1-0.7 0.2-1.2 0.2-0.7 0.2-1.9 0.4-2.6 0.8-0.3 0.4-0.1 0.5-1.2 1zm-2.3 12.8v0.3h0.8c0.1 0 0.2-0.1 0.4-0.3zm0-3.8v0.4h1.1c-0.2-0.2-0.3-0.3-0.4-0.4zm-1.4-11.1c-0.2-0.3 0-1 0.3-1.7l-0.6 1.2c0 0-0.2 0.7 0.3 1.1l0.2 0.1 0.1-0.4c-0.1 0-0.3-0.1-0.3-0.3zm2.2 1.3l0.2-0.3c0 0 0.1-0.1 0.1-0.2zm0.2 24l-0.2-0.3 0.2 0.5c0.1-0.1 0-0.2 0-0.2z"/>
					<path id="Layer" class="s5" d="m65.5 244.2c-0.8 0-1.3-0.5-1.3-1.3 0-0.8 0.5-1.4 1.3-1.4h17.9c0.8 0 1.4 0.6 1.4 1.4 0 0.8-0.6 1.3-1.4 1.3z"/>
					<path id="Layer" class="s5" d="m136.7 244.2c-0.8 0-1.4-0.5-1.4-1.3 0-0.8 0.6-1.4 1.4-1.4h17.9c0.8 0 1.3 0.6 1.3 1.4 0 0.8-0.5 1.3-1.3 1.3z"/>
					<path id="Layer" class="s13" d="m77.3 244.7c-0.9 0-1.7-0.7-1.7-1.7 0-0.9 0.7-1.7 1.7-1.7h23.7c0.9 0 1.7 0.7 1.7 1.7 0 0.9-0.7 1.7-1.7 1.7z"/>
					<path id="Layer" class="s17" d="m125.2 244.7c-0.9 0-1.6-0.7-1.6-1.7 0-0.9 0.6-1.7 1.6-1.7h18.3c0.9 0 1.6 0.7 1.6 1.7 0 0.9-0.6 1.7-1.6 1.7z"/>
					<path id="Layer" class="s14" d="m85.9 244c-0.7 0-1.1-0.6-1.1-1.1 0-0.7 0.5-1.1 1.1-1.1h32.4c0.7 0 1.1 0.5 1.1 1.1 0 0.6-0.5 1.1-1.1 1.1z"/>
					<path id="Layer" class="s14" d="m79.3 245.4c0-0.2 0.2-0.4 0.5-0.4h7.2c0.2-0.1 1.3-1.1 1.3-2 0-0.9-1.1-2-1.3-2h-7.2c-0.3 0-0.5-0.2-0.5-0.5 0-0.2 0.2-0.4 0.5-0.4h8.2c0.2 0 0.4 0.1 0.4 0.3 1.2 0 2.2 1.3 2.2 2.6 0 1.3-1 2.5-2.2 2.5 0 0.3-0.2 0.4-0.4 0.4h-8.2c-0.3 0-0.5-0.2-0.5-0.5z"/>
					<path id="Layer" class="s5" d="m143.1 244.2c-0.7 0-1.3-0.5-1.3-1.3 0-0.8 0.6-1.4 1.3-1.4h17.9c0.8 0 1.4 0.6 1.4 1.4 0 0.8-0.6 1.3-1.4 1.3z"/>
					<path id="Layer" class="s13" d="m128.1 245.3c-1.2 0-2.3-1-2.3-2.3 0-1.2 1-2.3 2.3-2.3h25.3c1.2 0 2.3 1 2.3 2.3 0 1.2-1 2.3-2.3 2.3z"/>
					<path id="Layer" class="s18" d="m120.4 242.9c0-3.5 5.8-6.2 10.1-6.2 4.2 0 5.2 2.7 5.2 6.2 0 3.4-1 6.2-5.2 6.2-4.2 0-10.1-2.8-10.1-6.2z"/>
					<path id="Layer" class="s6" d="m85.9 232.7c-0.1 0.5 0.2 6 0.4 9.3l-1 0.1c-0.1-1.4-0.7-8.7-0.4-9.7 0.2-1.1 0.9-1.7 0.9-1.7l0.7 0.6c0 0-0.4 0.5-0.6 1.4z"/>
					<path id="Layer" class="s5" d="m86.9 231.4c-0.4 0.6-0.9 0.7-1.5 0.5-0.5-0.4-0.6-0.9-0.4-1.5l3.3-6.5c0.3-0.6 0.9-0.7 1.5-0.5 0.5 0.4 0.6 0.9 0.4 1.5z"/>
					<path id="Layer" class="s5" d="m87.1 224.3l-2.5 4.8c0 0-0.2 0.8 0.4 1.1 0.4 0.2 0.6 0.3 0.8 0.5 0.1 0.1 0.2 0.3 0.1 0.4-0.1 0.2-0.3 0.3-0.6 0.1-0.2-0.1-0.4-0.2-0.8-0.4-0.9-0.5-0.7-1.5-0.6-1.9l2.4-4.8c0.1-0.1 0.2-0.2 0.5-0.1 0.1 0.1 0.2 0.1 0.2 0.2 0.1 0.1 0.1 0.2 0.1 0.1z"/>
					<path id="Layer" class="s6" d="m86.5 254.5l-0.7 0.7c0 0-0.7-0.7-0.9-1.8-0.3-1 0.3-8.2 0.4-9.6l1 0.1c-0.2 3.3-0.5 8.8-0.4 9.3 0.2 0.8 0.6 1.3 0.6 1.3z"/>
					<path id="Layer" class="s5" d="m90.2 261c0.2 0.5 0.1 1.1-0.4 1.4-0.6 0.3-1.2 0.1-1.5-0.4l-3.3-6.6c-0.2-0.5-0.1-1.1 0.4-1.4 0.6-0.2 1.1-0.1 1.5 0.4z"/>
					<path id="Layer" class="s5" d="m87 261.5c0 0.2-0.1 0.2-0.2 0.3-0.3 0.1-0.4 0-0.5-0.1l-2.4-4.8c-0.1-0.5-0.3-1.5 0.6-1.9 0.4-0.2 0.6-0.3 0.8-0.5 0.3-0.2 0.5-0.1 0.6 0.2 0.1 0.1 0 0.3-0.1 0.4-0.2 0.1-0.4 0.2-0.8 0.4-0.6 0.4-0.4 1.2-0.4 1.2l2.5 4.7c0-0.1 0 0-0.1 0.1z"/>
					<path id="Layer" class="s5" d="m83.8 242.9c0-0.7 0.5-1.1 1.2-1.1 0.6 0 3.6-0.1 3.6 1.1 0 1.4-3 1.1-3.6 1.1-0.7 0-1.2-0.5-1.2-1.1z"/>
					<path id="Layer" class="s19" d="m121.1 233.9c-0.2 1.4-1.9 5.5-2.3 8.9-0.1 3.3 0.8 7.7 0.8 9.1l-0.3 0.1c-2.3-7.3-7-6.8-6.7-9.8 0.3-3 4.7-1.7 8.4-8.4z"/>
					<path id="Layer" class="s20" d="m119.8 237.2c-0.1 1-1.2 3.9-1.5 6.2 0 2.4 0.7 5.4 0.7 6.4l-0.2 0.1c-1.8-5-5-4.5-4.9-6.6 0.2-2.1 3.3-1.3 5.7-6.2z"/>
					<path id="Layer" class="s21" d="m111.7 252c-0.4-1.5 0.9-3.1 3-4.5-0.7-1.3-1.1-2.8-1.1-4.5 0-1.7 0.4-3.1 1.1-4.5-2.1-1.1-3.5-2.6-3.1-4.1 0.4-2.2 4.3-4 8.8-3.2 1.6 0.3 13.1 1 13.1 11.8 0 10.8-11.6 11.1-12.6 11.3-4.7 1.2-8.7-0.1-9.2-2.3z"/>
					<path id="Layer" fill-rule="evenodd" class="s22" d="m135.7 241.1c0 0.5 0.4 0.4 1 0.1v3.5c-0.6-0.4-1-0.4-1 0.1zm3-3h12.2c-0.5 0-0.4 0.5 0 1.1h-12.2c0.4-0.6 0.5-1.1 0-1.1zm15.2 3v3.6c0-0.5-0.5-0.4-1.2 0.1v-3.8c0.7 0.5 1.2 0.6 1.2 0.1zm-3 6.6h-12.2c0.5 0 0.4-0.5 0-1.1h12.2c-0.4 0.6-0.5 1.1 0 1.1zm-14.2-2.1c0-0.5 1.5 1 1 1h1c-0.5-0.7-1.4-1.5-2-1.9zm15 1c-0.6 0 1-1.6 1-1v-0.8c-0.6 0.4-1.3 1.2-1.8 1.8zm1-6.5c0 0.6-1.5-1-1-1h-0.7c0.4 0.6 1.1 1.4 1.7 1.8zm-15-1c0.6 0-1 1.6-1 1v1c0.7-0.5 1.5-1.3 2-2z"/>
					<path id="Layer" class="s22" d="m139.7 238.5h1.1v8.8h-1.1z"/>
					<path id="Layer" class="s22" d="m144.1 238.5h1.1v8.8h-1.1z"/>
					<path id="Layer" class="s22" d="m148.7 238.5h1.1v8.8h-1.1z"/>
					<path id="Layer" class="s23" d="m101.8 226.3c2.7 0 6.4 0.7 6.4 2 0 1.2-5.1 3.9-8.7 2.7-2.6-0.9-5.6-1.2-7.7-1.6v-2.6c2.7-0.3 6.7-0.5 10-0.5z"/>
					<path id="Layer" class="s12" d="m113.9 231.3c-0.2 1.6-3 2.5-6.1 1.9-3.1-0.5-5.5-2.2-5.3-3.8 0.3-1.5 3-2.4 6.2-1.9 3.1 0.6 5.4 2.3 5.2 3.8z"/>
					<path id="Layer" class="s12" d="m118.4 234.2c-0.5 1.8-3.1 2.6-5.7 1.7-2.6-0.9-4.3-3-3.7-4.8 0.5-1.8 3.1-2.6 5.8-1.7 2.6 0.8 4.3 2.9 3.6 4.8z"/>
					<path id="Layer" class="s12" d="m108.7 258.3c-3.2 0.6-5.9-0.3-6.2-1.9-0.2-1.5 2.2-3.2 5.3-3.7 3.1-0.6 5.9 0.3 6.1 1.8 0.2 1.6-2.1 3.3-5.2 3.8z"/>
					<path id="Layer" class="s12" d="m114.8 256.4c-2.7 0.9-5.3 0.1-5.8-1.6-0.6-1.8 1.1-3.9 3.7-4.8 2.6-0.9 5.2-0.1 5.7 1.7 0.7 1.7-1 3.8-3.6 4.7z"/>
					<path id="Layer" class="s24" d="m149.4 241.3c0 1.1 3.1-2 2-2h10.9c-1.1 0 2 3.1 2 2v3.6c0-1.1-3.1 2-2 2h-10.9c1.1 0-2-3.1-2-2z"/>
					<path id="Layer" class="s14" d="m155.6 238.4c2.5 0 4.7 2.1 4.7 4.7 0 2.6-2.2 4.7-4.7 4.7h-10.7c-2.5 0-4.7-2.1-4.7-4.7 0-2.6 2.2-4.7 4.7-4.7z"/>
					<path id="Layer" class="s25" d="m154.8 239.8c2.1 0 3.8 1.5 3.8 3.3 0 1.9-1.7 3.3-3.8 3.3h-8.6c-2.1 0-3.7-1.5-3.7-3.3 0-1.9 1.6-3.3 3.7-3.3z"/>
					<path id="Layer" class="s18" d="m130.8 237.7c0 1.1 3.1-2 2-2h9.3c-1.1 0 2 3.1 2 2v10.7c0-1.1-3.1 2-2 2h-9.3c1.1 0-2-3.1-2-2z"/>
					<path id="Layer" fill-rule="evenodd" class="s5" d="m130.2 238.1c0 1.7 4.7-3 3-3h8.5c-1.7 0 3 4.7 3 3v9.9c0-1.7-4.7 3-3 3h-8.5c1.7 0-3-4.7-3-3zm1.3 9.7c0-1.1 3.1 2 2 2h8c-1.1 0 2-3.1 2-2v-9.5c0 1.1-3.1-2-2-2h-8c1.1 0-2 3.1-2 2z"/>
					<path id="Layer" class="s18" d="m116.1 237.7c0 1.1 3.1-2 2-2h9.4c-1.2 0 2 3.1 2 2v10.7c0-1.1-3.2 2-2 2h-9.4c1.1 0-2-3.1-2-2z"/>
					<path id="Layer" fill-rule="evenodd" class="s26" d="m115.4 238.1c0 1.7 4.7-3 3-3h8.5c-1.7 0 3 4.7 3 3v9.9c0-1.7-4.7 3-3 3h-8.5c1.7 0-3-4.7-3-3zm1.3 9.7c0-1.1 3.1 2 2 2h8c-1.1 0 2-3.1 2-2v-9.5c0 1.1-3.1-2-2-2h-8c1.1 0-2 3.1-2 2z"/>
					<path id="Layer" class="s12" d="m122.9 256c-5.2 1.3-9.8-0.1-10.3-2.7-0.5-1.6 1-3.5 3.4-5-0.8-1.5-1.2-3.3-1.2-5.1 0-1.8 0.4-3.5 1.2-5.1-2.4-1.3-3.8-3-3.6-4.7 0.5-2.5 4.9-4.5 10.2-3.6 0.3 0 0.8 0.1 1.7 0.2v25.7c-0.7 0.2-1.2 0.3-1.4 0.3z"/>
					<path id="Layer" class="s12" d="m137.1 243.2c0 10.2-9.2 12.1-12.9 12.6v-25.7c4.1 0.8 12.9 3.1 12.9 13.1z"/>
					<path id="Layer" class="s14" d="m136.5 228.3c0 0.6 1.5-1 1-1h26.3c-0.5 0 1 1.6 1 1v29.5c0-0.6-1.5 1-1 1h-26.3c0.5 0-1-1.6-1-1z"/>
					<path id="Layer" class="s13" d="m138.5 230.3c0 0.6 1.5-1 1-1h22.3c-0.5 0 1 1.6 1 1v25.6c0-0.6-1.5 1-1 1h-22.3c0.5 0-1-1.6-1-1z"/>
					<path id="Layer" class="s12" d="m118.8 256.5l-14.8 2.9-1.3-5.5 13.3-5.5z"/>
					<path id="Layer" class="s27" d="m89.9 255l12.8-1.1 1.2 5.6-12.1-0.4-3.8 1.4c-0.4 0.2-0.8 0-1-0.3l-1.7-3.2c-0.2-0.5 0-0.9 0.5-1.1l1.5-0.6-0.4-0.9 1.6-0.2c0.1 0 0.3 0 0.4 0.1z"/>
					<path id="Layer" class="s12" d="m116 238.1l-13.5-6.6 2.7-5.2 14.6 3.4z"/>
					<path id="Layer" class="s27" d="m87.9 225.2l4.2 1.2 13.2-0.1-2.3 5.4-10.6-1.7-3.5 1.7c-0.3 0.1-0.4 0.1-0.6 0.1l-1.5-0.1 0.3-1.3-1.5-0.4c-0.4-0.1-0.5-0.6-0.4-0.9l1.8-3.4c0.2-0.4 0.5-0.5 0.9-0.5z"/>
					<path id="Layer" class="s11" d="m118.7 235.1l16.3 15.2c0 0-4.8 6.8-16.3 6.1z"/>
					<path id="Layer" class="s13" d="m104 242.9c0-3.4 2.7-5.9 5.8-5.9 3.2 0 10.6 2.7 10.6 6 0 3.3-7.6 5.9-10.7 5.9-3.3-0.1-5.8-2.8-5.7-6z"/>
					<path id="Layer" class="s25" d="m115 234.5c4.5 0 8.1 3.8 8.1 8.4 0 4.6-3.6 8.3-8.1 8.3-4.5 0-8.1-3.7-8.1-8.3 0-4.6 3.6-8.4 8.1-8.4z"/>
					<path id="Layer" class="s14" d="m117.1 234.9c0 0-9.7 5.6-7.4 14 0 0-5-5.7 0.1-11.9 0-0.1 2.4-2.8 7.3-2.1z"/>
					<path id="Layer" class="s28" d="m104.2 228.8c0 0-13.1-1.8-13.3-1.9-1.8-0.7-3.8-1.4-3.8-1.4l0.3-0.6 4.4 1.3h13.4z"/>
					<path id="Layer" class="s28" d="m103 255.3l-13.2 0.1-1.4-1.1-1.5 0.2-0.3-0.4 1.6-0.2c0.1 0 0.2 0 0.3 0.1l1.1 0.9c0.2 0.1 0.3 0.1 0.4 0.1l12.7-1.1z"/>
					<path id="Layer" class="s14" d="m139.5 229.3l14.4 27.9-16.3 1.6-1.1-30.3z"/>
					<path id="Layer" class="s2" d="m449 560c0.1 2.6-2.1 4.9-4.8 4.9l-102.9-0.4 106-70.2z"/>
				</g>
			</g>
		</g>
	</g>
</svg>